<?xml version="1.0" encoding="UTF-8" standalone="no"?>
<!-- Created with Inkscape (http://www.inkscape.org/) -->

<svg
   width="48"
   height="48"
   viewBox="0 0 12.7 12.7"
   version="1.1"
   id="svg142569"
   inkscape:version="1.2.2 (b0a8486541, 2022-12-01)"
   sodipodi:docname="icon.svg"
   xmlns:inkscape="http://www.inkscape.org/namespaces/inkscape"
   xmlns:sodipodi="http://sodipodi.sourceforge.net/DTD/sodipodi-0.dtd"
   xmlns="http://www.w3.org/2000/svg"
   xmlns:svg="http://www.w3.org/2000/svg">
  <sodipodi:namedview
     id="namedview142571"
     pagecolor="#ffffff"
     bordercolor="#666666"
     borderopacity="1.0"
     inkscape:showpageshadow="2"
     inkscape:pageopacity="0.0"
     inkscape:pagecheckerboard="0"
     inkscape:deskcolor="#d1d1d1"
     inkscape:document-units="mm"
     showgrid="false"
     inkscape:zoom="1.8761364"
     inkscape:cx="-63.16172"
     inkscape:cy="175.09388"
     inkscape:window-width="1452"
     inkscape:window-height="1230"
     inkscape:window-x="166"
     inkscape:window-y="82"
     inkscape:window-maximized="0"
     inkscape:current-layer="layer1" />
  <defs
     id="defs142566" />
  <g
     inkscape:label="Layer 1"
     inkscape:groupmode="layer"
     id="layer1">
    <rect
       style="fill:#ebbf54;fill-opacity:1;stroke-width:2.026;stroke-linecap:round;stroke-linejoin:round"
       id="rect25542"
       width="12.7"
       height="12.7"
       x="0"
       y="0" />
    <circle
       style="fill:#f7eac7;fill-opacity:1;stroke-width:2.026;stroke-linecap:round;stroke-linejoin:round"
       id="path41262"
       cx="6.2847905"
       cy="6.1652308"
       r="4.725069" />
    <path
       d="m -2.5100829,9.8419142 0.3304147,1.4893968 h 0.78935 l 0.066607,-1.4527626 c 0,0 -0.00971,-0.2474584 0.2774374,-0.279804 0.28714668,-0.032344 0.26909043,0.1731242 0.26909043,0.1731242 l -0.0514175,1.5594774 h 0.38640298 l 0.0413144,-1.6884813 c 0,0 -0.0299319,-0.2685403 0.31390126,-0.3292371 0.34383324,-0.060696 0.37115728,0.2490937 0.37115728,0.2490937 l -0.0664683,1.7713637 0.42152974,-0.0035 0.0597482,-1.8036136 c 0,0 -0.0612356,-0.4026791 0.41268351,-0.4978555 0.4739121,-0.095183 0.5063894,0.337581 0.5063894,0.337581 l 0.026164,1.9646341 0.4406356,2e-6 -0.016569,-2.0165676 c 0,0 -0.050115,-0.4852978 0.417342,-0.5936954 0.4674657,-0.1083945 0.4986807,0.4316923 0.4986807,0.4316923 l -0.060118,2.1785347 h 0.6457963 l 0.010627,-2.2155281 c 0,0 -0.042802,-0.6664157 0.6349734,-0.8001869 0.6777728,-0.1337595 0.7236601,0.6711221 0.7236601,0.6711221 L 4.9069748,11.33127 5.6049046,11.32811 V 8.741565 c 0,0 -0.043149,-0.87932 0.9075749,-1.0486984 1.1093617,-0.197634 1.0248642,1.0262533 1.0248642,1.0262533 l 0.117035,2.6121481 h 0.4241908 l -0.01149,-2.8998011 c 0,0 -0.011614,-1.1982757 1.021952,-1.3329719 1.3320785,-0.1736707 1.2614765,1.0166492 1.2614765,1.0166492 l -0.05079,3.2161468 h 0.530946 l -0.0067,-3.2678433 c 0,0 -0.04426,-1.3579913 1.090356,-1.3648683 1.337077,-0.00802 1.127668,1.691056 1.127668,1.691056 l 0.0077,2.9468726 0.501941,-0.0086 V 8.7478974 c 0,0 -0.05597,-1.925945 1.156123,-1.8776868 1.367068,0.054351 1.170281,1.8776868 1.170281,1.8776868 l -3.2e-5,2.5833356 h 0.422851 l 0.01363,-2.9745003 c 0,0 0.106076,-1.1263159 1.137537,-1.108803 1.329705,0.022565 1.245906,1.4205957 1.245906,1.4205957 l 0.02223,2.6626596 h 0.368111 l 7.71e-4,-3.1281454 c 0,0 -0.125422,-0.9537191 0.642395,-0.8361325 0.617581,0.09455 0.546493,0.748829 0.546493,0.748829 l -0.0262,3.2154139 H 20.56736 V 8.1190144 c 0,0 0.0055,-0.5402414 0.415155,-0.4658407 0.39732,0.072156 0.451437,0.4534264 0.451437,0.4534264 v 3.2245849 h 0.283413 V 8.368082 c 0,0 -0.0129,-0.5407623 0.426018,-0.4854849 0.435136,0.054801 0.347314,0.4854494 0.347314,0.4854494 V 11.33115 h 0.281985 l -1.21e-4,-2.9609318 c 0,0 -0.0094,-0.3405109 0.344043,-0.3252991 0.339815,0.014627 0.334844,0.4561418 0.334844,0.4561418 v 2.8300301 h 0.270527 l 0.01097,-2.7526541 c 0,0 -0.05624,-0.3552735 0.303991,-0.3339188 0.350135,0.020761 0.306327,0.44726 0.306327,0.44726 l 0.007,2.6392989 h 0.26738 l -0.0036,-2.6230806 c 0,0 0.02572,-0.3179942 0.313914,-0.2808105 0.341643,0.044073 0.342841,0.4238779 0.342841,0.4238779 l -0.0055,2.4767662 h 0.269776 l 0.0072,-2.3963076 c 0,0 -0.04373,-0.3596368 0.333505,-0.3302197 0.35954,0.028028 0.312926,0.4068512 0.312926,0.4068512 v 2.3197111 l 0.249312,-1.2e-5 -7.7e-4,-2.2198372 c 0,0 0.0064,-0.3847491 0.377904,-0.3200325 0.356212,0.062053 0.30498,0.448232 0.30498,0.448232 l 0.0094,2.0916617 H 27.34626 V 9.3300477 c 0,0 -0.03974,-0.3841635 0.32419,-0.3543072 0.380079,0.03118 0.34155,0.3914678 0.34155,0.3914678 v 1.9607157 h 0.206501 V 9.5512757 c 0,0 -0.0095,-0.3739848 0.331793,-0.348978 0.366331,0.026834 0.324496,0.3613692 0.324496,0.3613692 v 1.7641971 h 0.219581 V 9.7235498 c 0,0 0.03785,-0.3367309 0.356951,-0.2950767 0.358249,0.046771 0.334981,0.4437175 0.334981,0.4437175 V 11.327935 H 30.01407 V 10.01976 c 0,0 -0.04445,-0.343702 0.312101,-0.3209472 0.364535,0.023266 0.313987,0.3219322 0.313987,0.3219322 v 1.307167 l 0.242336,3e-6 0.764196,-1.301339 C 30.864071,9.368328 20.216041,6.6597714 12.966456,6.432593 5.7168725,6.2054144 3.2475055,7.8473919 -2.5103403,9.8419142 Z"
       fill="#cd7320"
       id="path79433"
       style="stroke-width:0.999991"
       sodipodi:nodetypes="ccccsccccscccccccccccccccccccccccccccccccccccccccccccccccccsccccsccccsccccsccccscccccccccsccccsccccsccccsccccscccczc" />
  </g>
</svg>
