<?xml version="1.0" encoding="UTF-8" standalone="no"?>
<!-- Created with Inkscape (http://www.inkscape.org/) -->

<svg
   width="1200"
   height="630"
   viewBox="0 0 317.5 166.6875"
   version="1.1"
   id="svg5"
   xml:space="preserve"
   inkscape:version="1.2.2 (b0a8486541, 2022-12-01)"
   sodipodi:docname="social3.svg"
   inkscape:export-filename="social3.png"
   inkscape:export-xdpi="96"
   inkscape:export-ydpi="96"
   xmlns:inkscape="http://www.inkscape.org/namespaces/inkscape"
   xmlns:sodipodi="http://sodipodi.sourceforge.net/DTD/sodipodi-0.dtd"
   xmlns="http://www.w3.org/2000/svg"
   xmlns:svg="http://www.w3.org/2000/svg"><sodipodi:namedview
     id="namedview7"
     pagecolor="#ffffff"
     bordercolor="#666666"
     borderopacity="1.0"
     inkscape:showpageshadow="2"
     inkscape:pageopacity="0.0"
     inkscape:pagecheckerboard="0"
     inkscape:deskcolor="#d1d1d1"
     inkscape:document-units="mm"
     showgrid="false"
     inkscape:zoom="0.32346812"
     inkscape:cx="1173.2223"
     inkscape:cy="1041.8337"
     inkscape:window-width="2424"
     inkscape:window-height="1279"
     inkscape:window-x="602"
     inkscape:window-y="124"
     inkscape:window-maximized="0"
     inkscape:current-layer="g54388" /><defs
     id="defs2" /><g
     inkscape:label="Layer 1"
     inkscape:groupmode="layer"
     id="layer1"
     clip-path="none"
     transform="translate(0.62445182,0.40650775)"><g
       id="g60217"
       transform="matrix(2.8325882,0,0,2.8325882,0.12050827,3.3851549)"
       style="stroke-width:0.353035"
       clip-path="none"><g
         id="g54388"
         style="stroke-width:0.527561"
         clip-path="none"
         transform="matrix(0.66918375,0,0,0.66918375,18.620112,-1.0432771)"><rect
           style="fill:#ebbf54;fill-opacity:1;stroke-width:1.06884;stroke-linecap:round;stroke-linejoin:round"
           id="rect25542"
           width="179.33478"
           height="88.601158"
           x="-30.857422"
           y="-6.2995882" /><circle
           style="fill:#f7eac7;fill-opacity:1;stroke-width:1.06884;stroke-linecap:round;stroke-linejoin:round"
           id="path41262"
           cx="57.918774"
           cy="47.338596"
           r="32.964203" /><path
           d="m -46.79551,74.652188 1.997835,9.005543 h 4.77275 l 0.40272,-8.784036 c 0,0 -0.05874,-1.496242 1.6775,-1.691823 1.736215,-0.195565 1.627045,1.046789 1.627045,1.046789 l -0.310901,9.429285 h 2.336353 l 0.249802,-10.209302 c 0,0 -0.180984,-1.62371 1.897979,-1.990707 2.078975,-0.366991 2.244194,1.506128 2.244194,1.506128 l -0.401909,10.710444 2.548751,-0.02105 0.361262,-10.90544 c 0,0 -0.370249,-2.434775 2.495264,-3.010255 2.865478,-0.575517 3.061851,2.041162 3.061851,2.041162 l 0.158217,11.879046 2.664265,6e-6 -0.100213,-12.193051 c 0,0 -0.303041,-2.934317 2.523435,-3.58974 2.826499,-0.655401 3.015247,2.610199 3.015247,2.610199 l -0.36353,13.172378 h 3.904766 l 0.06426,-13.396056 c 0,0 -0.258777,-4.029438 3.8393182,-4.838284 4.0981199,-0.808764 4.3755632,4.057906 4.3755632,4.057906 L -1.9488138,83.65741 2.2711763,83.63836 V 67.99898 c 0,0 -0.2608914,-5.316756 5.4876037,-6.34089 6.707689,-1.194987 6.196773,6.205183 6.196773,6.205183 l 0.707642,15.794186 h 2.564843 l -0.06955,-17.533468 c 0,0 -0.07025,-7.245305 6.179174,-8.059733 8.05434,-1.050091 7.627444,6.147105 7.627444,6.147105 L 30.65799,83.657599 h 3.210329 l -0.04076,-19.758813 c 0,0 -0.267586,-8.211016 6.592774,-8.252596 8.084543,-0.04852 6.818373,10.224867 6.818373,10.224867 l 0.04664,17.818088 3.034949,-0.05199 V 68.037283 c 0,0 -0.338354,-11.64511 6.990425,-11.35332 8.265896,0.328631 7.076028,11.35332 7.076028,11.35332 l -1.93e-4,15.619976 h 2.55676 l 0.08267,-17.985135 c 0,0 0.641385,-6.810194 6.878063,-6.704303 8.03998,0.136432 7.5333,8.58955 7.5333,8.58955 l 0.134349,16.0996 h 2.225744 l 0.0059,-18.914138 c 0,0 -0.75836,-5.766609 3.884211,-5.055627 3.734157,0.571692 3.304324,4.527745 3.304324,4.527745 l -0.158482,19.441806 h 1.908558 V 64.234779 c 0,0 0.03315,-3.266538 2.510218,-2.81668 2.402345,0.436293 2.729558,2.741618 2.729558,2.741618 v 19.497254 h 1.713698 V 65.740746 c 0,0 -0.0781,-3.269683 2.575874,-2.935449 2.63102,0.33134 2.10002,2.935235 2.10002,2.935235 v 17.916225 h 1.705 l -7.3e-4,-17.903088 c 0,0 -0.057,-2.058882 2.08022,-1.966903 2.05469,0.08842 2.02462,2.758033 2.02462,2.758033 v 17.111604 h 1.63573 l 0.0665,-16.643749 c 0,0 -0.34006,-2.148143 1.83805,-2.019022 2.1171,0.125512 1.85221,2.704328 1.85221,2.704328 l 0.0426,15.958361 h 1.61667 l -0.0226,-15.860291 c 0,0 0.15543,-1.922737 1.89808,-1.697907 2.06571,0.266486 2.07296,2.562955 2.07296,2.562955 l -0.0331,14.975609 h 1.63118 l 0.0435,-14.489125 c 0,0 -0.26443,-2.174524 2.01653,-1.996653 2.17392,0.169456 1.8921,2.460003 1.8921,2.460003 V 83.6369 l 1.50743,-7.4e-5 -0.003,-13.422107 c 0,0 0.0387,-2.326364 2.28497,-1.935062 2.15382,0.375211 1.84406,2.710213 1.84406,2.710213 l 0.0565,12.647097 h 1.31044 V 71.55722 c 0,0 -0.24035,-2.322818 1.96018,-2.142294 2.29812,0.188536 2.06519,2.36698 2.06519,2.36698 v 11.855349 h 1.24857 V 72.89486 c 0,0 -0.0576,-2.261275 2.00618,-2.110074 2.21501,0.16227 1.96205,2.184994 1.96205,2.184994 v 10.667113 h 1.32769 v -9.700391 c 0,0 0.22899,-2.036019 2.15827,-1.784163 2.16613,0.282788 2.02544,2.682913 2.02544,2.682913 v 8.802069 h 1.37717 v -7.909803 c 0,0 -0.26875,-2.078169 1.8871,-1.940584 2.20415,0.14067 1.89851,1.946542 1.89851,1.946542 v 7.903705 l 1.46527,1.5e-5 4.62067,-7.868458 C 155.00081,71.788677 90.618147,55.411554 46.783983,54.037935 2.9498295,52.664316 -11.981045,62.592431 -46.79551,74.652188 Z"
           fill="#cd7320"
           id="path79433"
           style="fill:#cd7320;fill-opacity:1;stroke-width:0.527554"
           sodipodi:nodetypes="ccccsccccscccccccccccccccccccccccccccccccccccccccccccccccccsccccsccccsccccsccccscccccccccsccccsccccsccccsccccscccczc"
           inkscape:label="bridge" /><g
           id="g62675"
           inkscape:label="lindyhop"
           transform="translate(4.1875008,-2.1163152)"
           style="stroke-width:0.527561"><g
             aria-label="Lindy Hop"
             transform="matrix(0.75096874,-0.08326554,0.08326554,0.75096874,-25.514937,-2.4210473)"
             id="text1779"
             style="font-size:30.9728px;line-height:1.25;font-family:'DejaVu Serif';-inkscape-font-specification:'DejaVu Serif';fill:#8cae94;fill-opacity:1;stroke-width:0.184739"><path
               d="m 66.655008,50.637503 q 0.129053,0.154864 0.129053,0.361349 0,0.283917 -0.232296,0.438781 -0.80013,0.645267 -1.729314,0.980805 -0.903373,0.335539 -1.677693,0.335539 -1.084048,0 -1.832558,-0.258107 -0.748509,-0.232296 -1.755125,-0.722698 -1.135669,-0.593645 -2.116475,-0.903373 -0.980805,-0.283918 -2.529445,-0.283918 h -0.877563 q -0.232296,0 -0.41297,-0.180674 -0.154864,-0.154864 -0.154864,-0.412971 V 27.743442 q 0,-0.232296 -0.309728,-0.283918 h -1.419587 q -2.452013,0 -3.407008,0.800131 -0.954994,0.77432 -0.954994,2.452013 0,1.574451 0.851752,2.374582 0.851752,0.77432 2.942415,0.851752 0.567835,0.129053 0.567835,0.593645 v 1.574451 q 0,0.232296 -0.180675,0.41297 -0.154864,0.154864 -0.38716,0.154864 h -0.05162 q -3.252144,-0.129053 -5.05889,-1.729314 -1.780936,-1.626072 -1.780936,-4.23295 0,-2.761741 1.96161,-4.362002 1.961611,-1.626072 5.497672,-1.626072 h 4.25876 q 0.232296,0 0.38716,0.180674 0.180675,0.154864 0.180675,0.38716 v 22.403659 q 0,0.232296 0.258106,0.283917 1.084048,0.154864 1.832558,0.438781 0.748509,0.283918 1.677693,0.74851 0.851752,0.438781 1.445397,0.645266 0.593646,0.206486 1.367966,0.206486 1.006616,-0.103243 1.832557,-0.619456 0.154864,-0.103243 0.335539,-0.103243 0.283917,0 0.438781,0.206485 z"
               style="font-family:'Rostary Demo';-inkscape-font-specification:'Rostary Demo';fill:#8cae94;fill-opacity:1;stroke-width:0.184739"
               id="path53855" /><path
               d="m 64.89991,47.411169 q 0,0.232296 -0.180675,0.412971 -0.154864,0.154864 -0.38716,0.154864 H 62.57695 q -0.232296,0 -0.412971,-0.154864 -0.154864,-0.180675 -0.154864,-0.412971 V 27.30466 q 0,-0.232296 0.154864,-0.38716 0.180675,-0.180674 0.412971,-0.180674 h 1.755125 q 0.232296,0 0.38716,0.180674 0.180675,0.154864 0.180675,0.38716 z"
               style="font-family:'Rostary Demo';-inkscape-font-specification:'Rostary Demo';fill:#8cae94;fill-opacity:1;stroke-width:0.184739"
               id="path53857" /><path
               d="m 74.862813,27.330471 q 0,-0.258107 0.154864,-0.412971 0.180675,-0.180674 0.438782,-0.180674 h 1.703504 q 0.490402,0 0.593645,0.567834 v 20.106509 q 0,0.232296 -0.180675,0.412971 -0.154864,0.154864 -0.41297,0.154864 h -2.374582 q -0.387159,0 -0.542023,-0.412971 L 70.320136,33.88638 q -0.02581,-0.05162 -0.05162,-0.05162 -0.07743,0 -0.07743,0.07743 l 0.180675,13.473168 q 0,0.258106 -0.180675,0.438781 -0.154864,0.154864 -0.412971,0.154864 h -1.703504 q -0.490402,0 -0.593645,-0.567835 V 27.30466 q 0,-0.232296 0.154864,-0.38716 0.180675,-0.180674 0.438781,-0.180674 h 2.374582 q 0.206485,0 0.361349,0.129053 0.154864,0.103243 0.180675,0.283917 l 3.923221,13.679653 q 0.02581,0.05162 0.05162,0.05162 0.07743,0 0.07743,-0.07743 z"
               style="font-family:'Rostary Demo';-inkscape-font-specification:'Rostary Demo';fill:#8cae94;fill-opacity:1;stroke-width:0.184739"
               id="path53859" /><path
               d="m 85.264541,26.736826 q 2.555256,0 3.794168,1.290533 1.264722,1.290533 1.264722,3.690925 v 11.279261 q 0,2.374582 -1.264722,3.690926 -1.238912,1.290533 -3.794168,1.290533 h -4.336192 q -0.232296,0 -0.412971,-0.154864 -0.154864,-0.180675 -0.154864,-0.412971 V 27.30466 q 0,-0.232296 0.154864,-0.38716 0.180675,-0.180674 0.412971,-0.180674 z m 2.168096,4.981458 q 0,-1.342154 -0.516213,-1.884178 -0.490403,-0.567835 -1.651883,-0.567835 h -1.729315 q -0.232296,0 -0.283917,0.283917 v 15.615453 q 0,0.232296 0.283917,0.283918 h 1.729315 q 1.16148,0 1.651883,-0.542024 0.516213,-0.567835 0.516213,-1.90999 z"
               style="font-family:'Rostary Demo';-inkscape-font-specification:'Rostary Demo';fill:#8cae94;fill-opacity:1;stroke-width:0.184739"
               id="path53861" /><path
               d="m 100.26054,27.123986 q 0.18068,-0.38716 0.56784,-0.38716 h 1.57445 q 0.51621,0 0.59364,0.567834 0,0.103243 -0.0258,0.180675 L 98.6861,39.926076 q 0,0.05162 -0.02581,0.05162 v 7.433472 q 0,0.232296 -0.180674,0.412971 -0.154864,0.154864 -0.38716,0.154864 H 96.36313 q -0.490403,0 -0.593645,-0.567835 V 39.926076 L 91.484914,27.485335 q -0.02581,-0.07743 -0.02581,-0.180675 0,-0.232296 0.154864,-0.38716 0.180675,-0.180674 0.412971,-0.180674 H 93.6272 q 0.412971,0 0.542024,0.38716 l 2.890795,8.672384 q 0.05162,0.103242 0.154864,0.103242 0.103243,0 0.129053,-0.103242 z"
               style="font-family:'Rostary Demo';-inkscape-font-specification:'Rostary Demo';fill:#8cae94;fill-opacity:1;stroke-width:0.184739"
               id="path53863" /><path
               d="m 138.89913,51.282769 q 0.18067,0.154864 0.18067,0.412971 0,0.283917 -0.23229,0.438781 -0.80013,0.619456 -1.70351,0.929184 -0.87756,0.335539 -1.65188,0.335539 v -0.02581 h -0.2323 q -5.3428,0 -5.42024,-7.123744 v -7.665768 q 0,-0.258106 -0.28391,-0.309728 h -5.21376 q -0.23229,0 -0.28392,0.309728 v 10.685616 q 0,0.516214 -0.56783,0.593646 h -1.96161 q -0.2323,0 -0.41297,-0.180675 -0.15487,-0.154864 -0.15487,-0.412971 V 27.743442 q 0,-0.232296 -0.28391,-0.283918 h -1.4454 q -2.37458,0 -3.35539,0.800131 -0.9808,0.77432 -0.9808,2.452013 0,1.574451 0.85175,2.374582 0.87756,0.77432 2.91661,0.851752 0.56783,0.129053 0.56783,0.593645 v 1.574451 q 0,0.490402 -0.54202,0.567834 h -0.0516 q -3.25214,-0.129053 -5.05889,-1.729314 -1.80674,-1.626072 -1.80674,-4.23295 0,-2.761741 1.96161,-4.362002 1.96161,-1.626072 5.49767,-1.626072 v -0.02581 h 4.25876 q 0.2323,0 0.38716,0.180675 0.18067,0.154864 0.18067,0.41297 v 9.962918 q 0,0.232296 0.28392,0.283917 h 5.21376 q 0.23229,0 0.28391,-0.283917 v -9.962918 q 0,-0.258106 0.15487,-0.41297 0.18067,-0.180675 0.43878,-0.180675 h 1.9358 q 0.25811,0 0.41297,0.180675 0.18067,0.154864 0.18067,0.41297 v 20.803397 q 0,2.245528 0.51622,3.381198 0.51621,1.16148 2.03904,1.18729 0.74851,-0.02581 1.4454,-0.542024 0.18067,-0.129053 0.36135,-0.129053 0.23229,0 0.38716,0.154864 z"
               style="font-family:'Rostary Demo';-inkscape-font-specification:'Rostary Demo';fill:#8cae94;fill-opacity:1;stroke-width:0.184739"
               id="path53865" /><path
               d="m 140.86075,26.50453 q 2.55525,0 3.79416,1.316344 1.26473,1.290533 1.26473,3.665114 v 11.718043 q 0,2.374581 -1.26473,3.690925 -1.23891,1.290533 -3.79416,1.290533 -2.55526,0 -3.81998,-1.290533 -1.23891,-1.316344 -1.23891,-3.690925 V 31.485988 q 0,-2.374581 1.23891,-3.665114 1.26472,-1.316344 3.81998,-1.316344 z m 2.16809,4.981458 q 0,-1.342154 -0.51621,-1.884178 -0.4904,-0.567835 -1.65188,-0.567835 -1.16148,0 -1.6777,0.567835 -0.4904,0.542024 -0.4904,1.884178 v 11.718043 q 0,1.342154 0.4904,1.909989 0.51622,0.542024 1.6777,0.542024 1.16148,0 1.65188,-0.542024 0.51621,-0.567835 0.51621,-1.909989 z"
               style="font-family:'Rostary Demo';-inkscape-font-specification:'Rostary Demo';fill:#8cae94;fill-opacity:1;stroke-width:0.184739"
               id="path53867" /><path
               d="m 153.48216,26.736826 q 2.19391,0 3.40701,1.264722 1.2131,1.264723 1.2131,3.561872 v 2.32296 q 0,2.32296 -1.2131,3.587683 -1.2131,1.264722 -3.40701,1.264722 h -1.80675 q -0.23229,0 -0.28392,0.283918 v 8.388466 q 0,0.232296 -0.18067,0.412971 -0.15486,0.154864 -0.38716,0.154864 h -1.75513 q -0.23229,0 -0.41297,-0.154864 -0.15486,-0.180675 -0.15486,-0.412971 V 27.30466 q 0,-0.232296 0.15486,-0.38716 0.18068,-0.180674 0.41297,-0.180674 z m 1.72931,4.826594 q 0,-1.290533 -0.4904,-1.780936 -0.46459,-0.516213 -1.4454,-0.516213 h -1.60026 q -0.23229,0 -0.28392,0.283917 v 6.349424 q 0,0.258107 0.28392,0.309728 h 1.60026 q 0.98081,0 1.4454,-0.516213 0.4904,-0.516213 0.4904,-1.806747 z"
               style="font-family:'Rostary Demo';-inkscape-font-specification:'Rostary Demo';fill:#8cae94;fill-opacity:1;stroke-width:0.184739"
               id="path53869" /></g><g
             id="g56629"
             transform="matrix(0.75096874,-0.08326554,0.08326554,0.75096874,-140.40673,-9.660377)"
             style="font-size:30.9728px;line-height:1.25;font-family:'DejaVu Serif';-inkscape-font-specification:'DejaVu Serif';fill:#422f21;fill-opacity:1;stroke-width:0.184739"><path
               d="m 215.67187,75.850092 q 0.12905,0.154864 0.12905,0.36135 0,0.283917 -0.23229,0.438781 -0.80013,0.645267 -1.72932,0.980805 -0.90337,0.335539 -1.67769,0.335539 -1.08405,0 -1.83256,-0.258107 -0.74851,-0.232296 -1.75512,-0.722698 -1.13567,-0.593646 -2.11648,-0.903374 -0.9808,-0.283917 -2.52944,-0.283917 h -0.87757 q -0.23229,0 -0.41297,-0.180675 -0.15486,-0.154864 -0.15486,-0.41297 V 52.956031 q 0,-0.232295 -0.30973,-0.283917 h -1.41959 q -2.45201,0 -3.407,0.800131 -0.955,0.77432 -0.955,2.452013 0,1.574451 0.85175,2.374581 0.85176,0.77432 2.94242,0.851752 0.56783,0.129054 0.56783,0.593646 v 1.57445 q 0,0.232296 -0.18067,0.412971 -0.15487,0.154864 -0.38716,0.154864 h -0.0516 q -3.25215,-0.129053 -5.05889,-1.729315 -1.78094,-1.626072 -1.78094,-4.232949 0,-2.761741 1.96161,-4.362002 1.96161,-1.626072 5.49767,-1.626072 h 4.25876 q 0.2323,0 0.38716,0.180674 0.18068,0.154864 0.18068,0.38716 v 22.403658 q 0,0.232296 0.25811,0.283918 1.08404,0.154864 1.83255,0.438781 0.74851,0.283917 1.6777,0.748509 0.85175,0.438782 1.44539,0.645267 0.59365,0.206485 1.36797,0.206485 1.00662,-0.103242 1.83256,-0.619456 0.15486,-0.103242 0.33553,-0.103242 0.28392,0 0.43879,0.206485 z"
               style="font-family:'Rostary Demo';-inkscape-font-specification:'Rostary Demo';fill:#422f21;fill-opacity:1;stroke-width:0.184739"
               id="path53838" /><path
               d="m 213.91677,72.623759 q 0,0.232296 -0.18067,0.412971 -0.15487,0.154864 -0.38716,0.154864 h -1.75513 q -0.2323,0 -0.41297,-0.154864 -0.15486,-0.180675 -0.15486,-0.412971 V 52.51725 q 0,-0.232296 0.15486,-0.38716 0.18067,-0.180674 0.41297,-0.180674 h 1.75513 q 0.23229,0 0.38716,0.180674 0.18067,0.154864 0.18067,0.38716 z"
               style="font-family:'Rostary Demo';-inkscape-font-specification:'Rostary Demo';fill:#422f21;fill-opacity:1;stroke-width:0.184739"
               id="path53840" /><path
               d="m 223.87967,52.543061 q 0,-0.258107 0.15487,-0.412971 0.18067,-0.180674 0.43878,-0.180674 h 1.7035 q 0.49041,0 0.59365,0.567834 v 20.106509 q 0,0.232296 -0.18068,0.412971 -0.15486,0.154864 -0.41297,0.154864 h -2.37458 q -0.38716,0 -0.54202,-0.412971 L 219.337,59.09897 q -0.0258,-0.05162 -0.0516,-0.05162 -0.0774,0 -0.0774,0.07743 l 0.18067,13.473167 q 0,0.258107 -0.18067,0.438782 -0.15487,0.154864 -0.41297,0.154864 h -1.70351 q -0.4904,0 -0.59364,-0.567835 V 52.51725 q 0,-0.232296 0.15486,-0.38716 0.18068,-0.180674 0.43878,-0.180674 h 2.37458 q 0.20649,0 0.36135,0.129053 0.15487,0.103243 0.18068,0.283917 l 3.92322,13.679653 q 0.0258,0.05162 0.0516,0.05162 0.0774,0 0.0774,-0.07743 z"
               style="font-family:'Rostary Demo';-inkscape-font-specification:'Rostary Demo';fill:#422f21;fill-opacity:1;stroke-width:0.184739"
               id="path53842" /><path
               d="m 234.2814,51.949416 q 2.55526,0 3.79417,1.290533 1.26472,1.290533 1.26472,3.690925 v 11.279261 q 0,2.374581 -1.26472,3.690925 -1.23891,1.290534 -3.79417,1.290534 h -4.33619 q -0.2323,0 -0.41297,-0.154864 -0.15487,-0.180675 -0.15487,-0.412971 V 52.51725 q 0,-0.232296 0.15487,-0.38716 0.18067,-0.180674 0.41297,-0.180674 z m 2.1681,4.981458 q 0,-1.342155 -0.51622,-1.884179 -0.4904,-0.567834 -1.65188,-0.567834 h -1.72931 q -0.2323,0 -0.28392,0.283917 v 15.615453 q 0,0.232296 0.28392,0.283917 h 1.72931 q 1.16148,0 1.65188,-0.542024 0.51622,-0.567834 0.51622,-1.909989 z"
               style="font-family:'Rostary Demo';-inkscape-font-specification:'Rostary Demo';fill:#422f21;fill-opacity:1;stroke-width:0.184739"
               id="path53844" /><path
               d="m 249.2774,52.336576 q 0.18068,-0.38716 0.56784,-0.38716 h 1.57444 q 0.51622,0 0.59365,0.567834 0,0.103243 -0.0258,0.180675 l -4.28457,12.440741 q 0,0.05162 -0.0258,0.05162 v 7.433472 q 0,0.232296 -0.18067,0.412971 -0.15487,0.154864 -0.38716,0.154864 H 245.38 q -0.4904,0 -0.59364,-0.567835 v -7.485092 l -4.28459,-12.440741 q -0.0258,-0.07743 -0.0258,-0.180675 0,-0.232296 0.15487,-0.38716 0.18067,-0.180674 0.41297,-0.180674 h 1.60026 q 0.41297,0 0.54202,0.38716 l 2.8908,8.672383 q 0.0516,0.103243 0.15486,0.103243 0.10325,0 0.12906,-0.103243 z"
               style="font-family:'Rostary Demo';-inkscape-font-specification:'Rostary Demo';fill:#422f21;fill-opacity:1;stroke-width:0.184739"
               id="path53846" /><path
               d="m 287.91599,76.495359 q 0.18067,0.154864 0.18067,0.412971 0,0.283917 -0.2323,0.438781 -0.80013,0.619456 -1.7035,0.929184 -0.87756,0.335539 -1.65188,0.335539 v -0.02581 h -0.2323 q -5.34281,0 -5.42024,-7.123744 v -7.665768 q 0,-0.258106 -0.28392,-0.309728 h -5.21375 q -0.2323,0 -0.28392,0.309728 v 10.685615 q 0,0.516213 -0.56783,0.593645 h -1.96161 q -0.2323,0 -0.41297,-0.180674 -0.15487,-0.154864 -0.15487,-0.412971 V 52.956031 q 0,-0.232295 -0.28391,-0.283917 h -1.4454 q -2.37458,0 -3.35539,0.800131 -0.9808,0.77432 -0.9808,2.452013 0,1.574451 0.85175,2.374581 0.87756,0.77432 2.9166,0.851752 0.56784,0.129054 0.56784,0.593646 v 1.57445 q 0,0.490403 -0.54203,0.567835 h -0.0516 q -3.25214,-0.129053 -5.05889,-1.729315 -1.80674,-1.626072 -1.80674,-4.232949 0,-2.761741 1.96161,-4.362002 1.96161,-1.626072 5.49767,-1.626072 v -0.02581 h 4.25876 q 0.23229,0 0.38716,0.180675 0.18067,0.154864 0.18067,0.41297 v 9.962917 q 0,0.232296 0.28392,0.283918 h 5.21375 q 0.2323,0 0.28392,-0.283918 v -9.962917 q 0,-0.258106 0.15487,-0.41297 0.18067,-0.180675 0.43878,-0.180675 h 1.9358 q 0.2581,0 0.41297,0.180675 0.18067,0.154864 0.18067,0.41297 v 20.803397 q 0,2.245528 0.51622,3.381197 0.51621,1.16148 2.03904,1.187291 0.74851,-0.02581 1.4454,-0.542024 0.18067,-0.129053 0.36135,-0.129053 0.23229,0 0.38716,0.154864 z"
               style="font-family:'Rostary Demo';-inkscape-font-specification:'Rostary Demo';fill:#422f21;fill-opacity:1;stroke-width:0.184739"
               id="path53848" /><path
               d="m 289.8776,51.71712 q 2.55526,0 3.79417,1.316343 1.26472,1.290534 1.26472,3.665115 V 68.41662 q 0,2.374582 -1.26472,3.690926 -1.23891,1.290533 -3.79417,1.290533 -2.55525,0 -3.81997,-1.290533 -1.23892,-1.316344 -1.23892,-3.690926 V 56.698578 q 0,-2.374581 1.23892,-3.665115 1.26472,-1.316343 3.81997,-1.316343 z m 2.1681,4.981458 q 0,-1.342155 -0.51621,-1.884179 -0.49041,-0.567834 -1.65189,-0.567834 -1.16148,0 -1.67769,0.567834 -0.4904,0.542024 -0.4904,1.884179 V 68.41662 q 0,1.342155 0.4904,1.90999 0.51621,0.542024 1.67769,0.542024 1.16148,0 1.65189,-0.542024 0.51621,-0.567835 0.51621,-1.90999 z"
               style="font-family:'Rostary Demo';-inkscape-font-specification:'Rostary Demo';fill:#422f21;fill-opacity:1;stroke-width:0.184739"
               id="path53850" /><path
               d="m 302.49902,51.949416 q 2.1939,0 3.407,1.264722 1.21311,1.264723 1.21311,3.561872 v 2.32296 q 0,2.32296 -1.21311,3.587683 -1.2131,1.264722 -3.407,1.264722 h -1.80675 q -0.2323,0 -0.28392,0.283918 v 8.388466 q 0,0.232296 -0.18067,0.412971 -0.15487,0.154864 -0.38716,0.154864 h -1.75513 q -0.23229,0 -0.41297,-0.154864 -0.15486,-0.180675 -0.15486,-0.412971 V 52.51725 q 0,-0.232296 0.15486,-0.38716 0.18068,-0.180674 0.41297,-0.180674 z m 1.72931,4.826594 q 0,-1.290533 -0.4904,-1.780936 -0.46459,-0.516213 -1.4454,-0.516213 h -1.60026 q -0.2323,0 -0.28392,0.283917 v 6.349424 q 0,0.258107 0.28392,0.309728 h 1.60026 q 0.98081,0 1.4454,-0.516213 0.4904,-0.516214 0.4904,-1.806747 z"
               style="font-family:'Rostary Demo';-inkscape-font-specification:'Rostary Demo';fill:#422f21;fill-opacity:1;stroke-width:0.184739"
               id="path53852" /></g></g><g
           id="g62655"
           inkscape:label="ground"
           transform="translate(4.1875008,-5.7180929)"
           style="stroke-width:0.527561"><path
             id="rect76194"
             style="display:inline;fill:#8cae94;fill-opacity:1;stroke-width:1.06883;stroke-linecap:round;stroke-linejoin:round"
             d="M -237.85556,88.022363 C 22.513418,74.324652 218.14857,77.697794 339.38118,87.715937 347.58807,91.685364 104.71435,156.93757 104.71435,156.93757 L 3.0420553,156.60356 C -10.298075,157.67671 -237.27126,92.415626 -237.85556,88.022363 Z"
             sodipodi:nodetypes="ccccc" /><path
             style="display:inline;fill:#5e8066;fill-opacity:1;stroke:none;stroke-width:0.139582px;stroke-linecap:butt;stroke-linejoin:miter;stroke-opacity:1"
             d="m 30.775503,85.698762 c -6.746443,1.268414 9.166945,5.073238 16.907882,4.614334 9.929844,-0.588677 21.057479,1.890858 29.38504,-0.950116 5.88193,-2.00663 -13.54768,-4.215389 -20.433954,-3.348245 -5.158903,0.649641 -14.037721,-2.538528 -25.858968,-0.315973 z"
             id="path86820"
             sodipodi:nodetypes="sssss" /></g><g
           id="g56482"
           transform="matrix(0.75503742,-0.02838575,0.02838575,0.75503742,-23.952686,-1.4637039)"
           style="stroke-width:0.698227"
           inkscape:label="kalmaröland"><g
             aria-label="Kalmar Öland"
             transform="matrix(0.81766822,-0.10661498,0.13519331,1.2053622,0,0)"
             id="text584"
             style="font-size:14.9012px;line-height:1.25;font-family:'DejaVu Serif';-inkscape-font-specification:'DejaVu Serif';fill:#cd7320;fill-opacity:1;stroke-width:0.184739"><path
               d="m 101.92147,42.500271 q -0.43213,0 -0.89407,0.37253 -0.44704,0.357629 -0.87917,0.908973 -0.432137,0.536443 -0.879173,1.087788 -0.447036,0.551344 -1.028183,0.99838 -0.581147,0.447036 -1.177195,0.551344 0.402333,0.312926 0.402333,1.057986 0,0.387431 -0.23842,1.624231 -0.238419,1.236799 -0.238419,1.803045 0,0.491739 0.223518,0.759961 0.223518,0.268222 0.566246,0.268222 0.193715,0 0.342727,-0.0596 0.149012,-0.0447 0.193716,-0.104309 l 0.0447,-0.0447 q 0.104308,0.0149 0.104308,0.149012 0,0.357629 -0.506641,0.74506 -0.506641,0.387431 -1.192096,0.387431 -0.610949,0 -1.013281,-0.357629 -0.387432,-0.357629 -0.387432,-1.132491 0,-0.640752 0.253321,-1.460318 0.25332,-0.834467 0.506641,-1.609329 0.268221,-0.774863 0.268221,-1.281504 0,-0.327826 -0.134111,-0.491739 -0.119209,-0.163913 -0.327826,-0.163913 -0.238419,0 -0.37253,0.193715 -0.134111,0.178815 0,0.432135 -0.149012,0.104308 -0.298024,0.0447 -0.655653,1.072886 -1.147392,1.758341 -0.49174,0.670554 -1.043084,1.2368 -0.551345,0.566246 -1.11759,0.819566 -0.551345,0.25332 -1.192096,0.25332 -0.849369,0 -1.281504,-0.447036 -0.417233,-0.432134 -0.417233,-1.087787 0,-0.715258 0.461937,-1.251701 0.476838,-0.551345 1.221898,-0.551345 0.07451,0 0.104309,0.0298 0.0447,0.0298 0.0447,0.05961 l 0.0149,0.0298 q -0.0447,0.0298 -0.11921,0.07451 -0.0596,0.0447 -0.163913,0.223518 -0.104309,0.178815 -0.104309,0.402333 0,0.357628 0.223518,0.566245 0.223518,0.208617 0.581147,0.208617 0.685455,0 1.370911,-0.685455 0.700356,-0.685456 1.817946,-2.458698 0.610949,-0.953677 1.072886,-1.758342 0.476839,-0.804665 0.640752,-1.11759 l 0.149012,-0.327826 q 0.298024,-0.536444 0.298024,-0.938776 0,-0.566246 -0.715258,-0.566246 -1.415614,0 -2.473599,0.849369 -1.057985,0.849368 -1.057985,1.698737 0,0.298024 0.163913,0.491739 0.163913,0.193716 0.506641,0.193716 0.521542,0 0.923874,-0.312925 0.417234,-0.327827 0.476839,-0.566246 0.193715,-0.0149 0.193715,0.193716 0,0.13411 -0.08941,0.387431 -0.08941,0.25332 -0.283123,0.581147 -0.193715,0.327826 -0.461937,0.610949 -0.268221,0.283123 -0.685455,0.476838 -0.417234,0.193716 -0.894072,0.193716 -0.685455,0 -1.162294,-0.447036 -0.461937,-0.447036 -0.461937,-1.251701 0,-0.655653 0.402333,-1.326207 0.402332,-0.670554 1.087787,-1.206997 0.685455,-0.551344 1.683836,-0.894072 1.013281,-0.357629 2.11597,-0.357629 0.968578,0 1.564626,0.357629 0.610949,0.342728 0.610949,0.923874 0,0.402333 -0.342727,0.908974 -0.596048,0.864269 -1.654033,2.592808 0.149012,0.0298 0.312925,0.0298 0.506641,0 1.028183,-0.476839 0.536443,-0.476838 0.983479,-1.162293 0.461937,-0.685455 0.923874,-1.370911 0.461938,-0.685455 1.013287,-1.162293 0.55134,-0.476839 1.10269,-0.476839 0.58114,0 0.98347,0.402333 0.40234,0.387431 0.40234,1.013281 0,0.08941 -0.0447,0.163914 -0.0298,0.0596 -0.0745,0.07451 l -0.0447,0.0149 q -0.29802,-0.298024 -0.78976,-0.298024 z"
               style="font-family:Froadmile;-inkscape-font-specification:Froadmile;fill:#cd7320;fill-opacity:1;stroke-width:0.184739"
               id="path53815" /><path
               d="m 102.08539,49.399527 q 0.32783,0 0.80466,-0.506641 0.49174,-0.506641 0.93878,-1.177195 l 0.13411,0.357629 q -0.87917,1.37091 -1.54972,1.907353 -0.67056,0.536444 -1.26661,0.536444 -0.29802,0 -0.50664,-0.208617 -0.20861,-0.223518 -0.22352,-0.610949 -0.715253,0.819566 -1.445412,0.819566 -0.37253,0 -0.596048,-0.298024 -0.223518,-0.298024 -0.223518,-0.730159 0,-0.640752 0.417234,-1.400713 0.402332,-0.759961 1.11759,-1.311306 0.715254,-0.551344 1.475214,-0.551344 0.61095,0 0.84937,0.417233 0.0745,-0.149012 0.14901,-0.283122 h 1.26661 v 0.149012 q -0.17882,0.223518 -0.43214,0.566245 -0.25332,0.342728 -0.68545,1.057985 -0.41724,0.715258 -0.41724,1.013282 0,0.253321 0.19372,0.253321 z m -2.369292,0.0447 q 0.432132,0 1.236802,-1.087787 0.37253,-0.566246 0.50664,-0.789764 -0.23842,-0.0447 -0.23842,-0.253321 0.14901,0 0.23842,-0.149012 0.0894,-0.149012 0.0298,-0.298024 -0.0447,-0.149012 -0.22352,-0.149012 -0.47684,0 -1.13249,0.894072 -0.655651,0.879171 -0.655651,1.490121 0,0.342727 0.238419,0.342727 z"
               style="font-family:Froadmile;-inkscape-font-specification:Froadmile;fill:#cd7320;fill-opacity:1;stroke-width:0.184739"
               id="path53817" /><path
               d="m 106.25772,47.715691 0.13411,0.357629 q -0.87917,1.37091 -1.54972,1.907353 -0.67056,0.536444 -1.26661,0.536444 -0.31292,0 -0.52154,-0.223518 -0.22352,-0.23842 -0.22352,-0.655653 0,-0.402333 0.49174,-1.177195 0.47684,-0.774863 1.46032,-2.294785 0.98348,-1.519922 1.77324,-3.010042 h 1.40072 v 0.149012 q -0.0745,0.104308 -0.20862,0.298024 -0.13411,0.178814 -0.52154,0.730158 -0.37253,0.536444 -0.71526,1.043084 -0.34273,0.506641 -0.75996,1.147393 -0.41723,0.640751 -0.71526,1.147392 -0.29802,0.49174 -0.50664,0.908974 -0.20862,0.402332 -0.20862,0.566245 0,0.253321 0.19372,0.253321 0.32783,0 0.80466,-0.506641 0.49174,-0.506641 0.93878,-1.177195 z"
               style="font-family:Froadmile;-inkscape-font-specification:Froadmile;fill:#cd7320;fill-opacity:1;stroke-width:0.184739"
               id="path53819" /><path
               d="m 113.36559,47.715691 0.13411,0.357629 q -0.87917,1.37091 -1.54972,1.907353 -0.67056,0.536444 -1.26661,0.536444 -0.31292,0 -0.53644,-0.223518 -0.20862,-0.23842 -0.20862,-0.655653 0,-0.447036 0.32783,-1.043084 0.34273,-0.596048 0.67056,-1.057986 0.34272,-0.476838 0.34272,-0.610949 0,-0.119209 -0.14901,-0.119209 -0.25332,0 -0.68545,0.312925 -0.41724,0.298024 -0.83447,0.819566 -0.93878,1.460318 -1.41562,2.577908 h -1.3113 q 0.31292,-0.521542 0.68545,-1.132492 0.37253,-0.610949 0.58115,-0.968578 0.22352,-0.357629 0.41723,-0.700356 0.20862,-0.357629 0.29803,-0.536443 0.0894,-0.193716 0.0894,-0.268222 0,-0.11921 -0.14902,-0.11921 -0.25332,0 -0.74506,0.357629 -0.47683,0.342728 -0.90897,0.894072 -0.81957,1.311306 -1.41561,2.4736 h -1.32621 q 1.35601,-2.041465 2.4885,-4.157435 h 1.2517 v 0.149012 q -0.0596,0.07451 -0.14901,0.223518 0.73016,-0.506641 1.43051,-0.506641 0.37253,0 0.53645,0.149012 0.16391,0.149012 0.16391,0.506641 0,0 0,0.0149 0.83447,-0.670554 1.65403,-0.670554 0.77487,0 0.77487,0.62585 0,0.238419 -0.56625,1.102689 -0.56625,0.86427 -0.56625,1.192096 0,0.253321 0.20862,0.253321 0.32783,0 0.80467,-0.506641 0.47683,-0.506641 0.92387,-1.177195 z"
               style="font-family:Froadmile;-inkscape-font-specification:Froadmile;fill:#cd7320;fill-opacity:1;stroke-width:0.184739"
               id="path53821" /><path
               d="m 116.49484,49.399527 q 0.32782,0 0.80466,-0.506641 0.49174,-0.506641 0.93878,-1.177195 l 0.13411,0.357629 q -0.87917,1.37091 -1.54973,1.907353 -0.67055,0.536444 -1.2666,0.536444 -0.29802,0 -0.50664,-0.208617 -0.20862,-0.223518 -0.22352,-0.610949 -0.71526,0.819566 -1.44542,0.819566 -0.37253,0 -0.59604,-0.298024 -0.22352,-0.298024 -0.22352,-0.730159 0,-0.640752 0.41723,-1.400713 0.40233,-0.759961 1.11759,-1.311306 0.71526,-0.551344 1.47522,-0.551344 0.61095,0 0.84937,0.417233 0.0745,-0.149012 0.14901,-0.283122 h 1.2666 v 0.149012 q -0.17881,0.223518 -0.43213,0.566245 -0.25332,0.342728 -0.68546,1.057985 -0.41723,0.715258 -0.41723,1.013282 0,0.253321 0.19372,0.253321 z m -2.3693,0.0447 q 0.43214,0 1.2368,-1.087787 0.37253,-0.566246 0.50665,-0.789764 -0.23842,-0.0447 -0.23842,-0.253321 0.14901,0 0.23842,-0.149012 0.0894,-0.149012 0.0298,-0.298024 -0.0447,-0.149012 -0.22352,-0.149012 -0.47684,0 -1.13249,0.894072 -0.65565,0.879171 -0.65565,1.490121 0,0.342727 0.23841,0.342727 z"
               style="font-family:Froadmile;-inkscape-font-specification:Froadmile;fill:#cd7320;fill-opacity:1;stroke-width:0.184739"
               id="path53823" /><path
               d="m 120.16052,49.399527 q 0.32783,0 0.80467,-0.506641 0.47684,-0.506641 0.92387,-1.177195 l 0.13411,0.357629 q -0.87917,1.37091 -1.54972,1.907353 -0.67055,0.536444 -1.2666,0.536444 -0.31293,0 -0.53645,-0.223518 -0.20861,-0.23842 -0.20861,-0.655653 0,-0.387431 0.28312,-0.923875 0.28312,-0.551344 0.73016,-1.192096 0.44704,-0.655653 0.55134,-0.834467 -0.16391,0.0149 -0.34272,0.0149 -0.23842,0 -0.43214,-0.0298 -0.28312,0.610949 -1.05798,1.728539 l -0.19372,-0.312925 q 0.58115,-0.789764 0.86427,-1.519923 -0.19372,-0.119209 -0.19372,-0.342727 0,-0.253321 0.13412,-0.417234 0.13411,-0.163913 0.31292,-0.163913 0.31293,0 0.31293,0.476838 0,0.0149 0,0.0447 0.23842,0 0.64075,-0.0596 0.40233,-0.07451 0.49174,-0.07451 0.64075,0 0.64075,0.625851 0,0.25332 -0.62585,1.206997 -0.62585,0.953677 -0.62585,1.281503 0,0.253321 0.20861,0.253321 z"
               style="font-family:Froadmile;-inkscape-font-specification:Froadmile;fill:#cd7320;fill-opacity:1;stroke-width:0.184739"
               id="path53825" /><path
               d="m 130.93412,40.965447 q 1.60933,0 2.5779,1.013282 0.96858,0.99838 0.96858,2.637512 0,0.983479 -0.29802,2.026563 -0.29803,1.043084 -0.90898,2.041465 -0.59604,0.983479 -1.41561,1.773243 -0.80466,0.774862 -1.93716,1.251701 -1.11759,0.476838 -2.36929,0.476838 -0.87917,0 -1.53482,-0.461937 -0.64075,-0.447036 -0.64075,-0.998381 0,-0.193715 0.0894,-0.298024 0.1043,-0.119209 0.25332,-0.119209 0.16391,0.491739 0.64075,0.730159 0.49174,0.25332 1.16229,0.25332 1.07289,0 2.08617,-0.655653 1.01328,-0.640751 1.72854,-1.654033 0.71526,-1.028183 1.14739,-2.309686 0.44704,-1.281503 0.44704,-2.533204 0,-1.147393 -0.55135,-1.817947 -0.53644,-0.670554 -1.43051,-0.670554 -1.04309,0 -2.08617,0.774863 -1.02818,0.774862 -1.66894,1.952057 -0.64075,1.177195 -0.64075,2.294785 0,0.655653 0.29803,1.043084 0.29802,0.387431 0.80466,0.387431 0.78977,0 1.34111,-0.521542 0.56625,-0.536443 0.70036,-1.102689 0.25332,0 0.25332,0.327827 0,0.536443 -0.35763,1.132491 -0.34273,0.581147 -1.01328,1.028183 -0.65566,0.432135 -1.41562,0.432135 -0.89407,0 -1.53482,-0.640752 -0.62585,-0.655653 -0.62585,-1.877551 0,-1.043084 0.50664,-2.115971 0.50664,-1.072886 1.3113,-1.907353 0.81957,-0.834468 1.90736,-1.35601 1.10269,-0.536443 2.20538,-0.536443 z"
               style="font-family:Froadmile;-inkscape-font-specification:Froadmile;fill:#cd7320;fill-opacity:1;stroke-width:0.184739"
               id="path53827" /><path
               d="m 137.26714,47.715691 0.13411,0.357629 q -0.87917,1.37091 -1.54973,1.907353 -0.67055,0.536444 -1.2666,0.536444 -0.31292,0 -0.52154,-0.223518 -0.22352,-0.23842 -0.22352,-0.655653 0,-0.402333 0.49174,-1.177195 0.47684,-0.774863 1.46032,-2.294785 0.98348,-1.519922 1.77324,-3.010042 h 1.40071 v 0.149012 q -0.0745,0.104308 -0.20861,0.298024 -0.13411,0.178814 -0.52154,0.730158 -0.37253,0.536444 -0.71526,1.043084 -0.34273,0.506641 -0.75996,1.147393 -0.41724,0.640751 -0.71526,1.147392 -0.29803,0.49174 -0.50664,0.908974 -0.20862,0.402332 -0.20862,0.566245 0,0.253321 0.19372,0.253321 0.32782,0 0.80466,-0.506641 0.49174,-0.506641 0.93878,-1.177195 z"
               style="font-family:Froadmile;-inkscape-font-specification:Froadmile;fill:#cd7320;fill-opacity:1;stroke-width:0.184739"
               id="path53829" /><path
               d="m 140.35168,49.399527 q 0.32783,0 0.80467,-0.506641 0.49174,-0.506641 0.93877,-1.177195 l 0.13411,0.357629 q -0.87917,1.37091 -1.54972,1.907353 -0.67055,0.536444 -1.2666,0.536444 -0.29803,0 -0.50664,-0.208617 -0.20862,-0.223518 -0.22352,-0.610949 -0.71526,0.819566 -1.44542,0.819566 -0.37253,0 -0.59605,-0.298024 -0.22351,-0.298024 -0.22351,-0.730159 0,-0.640752 0.41723,-1.400713 0.40233,-0.759961 1.11759,-1.311306 0.71526,-0.551344 1.47522,-0.551344 0.61095,0 0.84937,0.417233 0.0745,-0.149012 0.14901,-0.283122 h 1.2666 v 0.149012 q -0.17881,0.223518 -0.43213,0.566245 -0.25332,0.342728 -0.68546,1.057985 -0.41723,0.715258 -0.41723,1.013282 0,0.253321 0.19371,0.253321 z m -2.36929,0.0447 q 0.43214,0 1.2368,-1.087787 0.37253,-0.566246 0.50664,-0.789764 -0.23842,-0.0447 -0.23842,-0.253321 0.14902,0 0.23842,-0.149012 0.0894,-0.149012 0.0298,-0.298024 -0.0447,-0.149012 -0.22352,-0.149012 -0.47684,0 -1.13249,0.894072 -0.65566,0.879171 -0.65566,1.490121 0,0.342727 0.23842,0.342727 z"
               style="font-family:Froadmile;-inkscape-font-specification:Froadmile;fill:#cd7320;fill-opacity:1;stroke-width:0.184739"
               id="path53831" /><path
               d="m 145.14987,49.399527 q 0.31292,0 0.78976,-0.506641 0.49174,-0.506641 0.92387,-1.177195 l 0.14902,0.357629 q -0.89408,1.37091 -1.56463,1.907353 -0.67055,0.536444 -1.2666,0.536444 -0.31293,0 -0.52154,-0.223518 -0.20862,-0.23842 -0.20862,-0.655653 0,-0.447036 0.32783,-1.043084 0.34272,-0.596048 0.67055,-1.057986 0.34273,-0.476838 0.34273,-0.610949 0,-0.119209 -0.14902,-0.119209 -0.26822,0 -0.73015,0.342727 -0.44704,0.327827 -0.87917,0.894072 -0.81957,1.326207 -1.41562,2.4736 h -1.32621 q 1.35601,-2.041465 2.4885,-4.157435 h 1.25171 v 0.149012 q -0.0447,0.07451 -0.13412,0.193715 0.70036,-0.476838 1.40072,-0.476838 0.77486,0 0.77486,0.62585 0,0.238419 -0.56625,1.102689 -0.56624,0.86427 -0.56624,1.192096 0,0.253321 0.20862,0.253321 z"
               style="font-family:Froadmile;-inkscape-font-specification:Froadmile;fill:#cd7320;fill-opacity:1;stroke-width:0.184739"
               id="path53833" /><path
               d="m 149.99275,49.399527 q 0.32783,0 0.80467,-0.506641 0.49174,-0.506641 0.93877,-1.177195 l 0.13411,0.357629 q -0.87917,1.37091 -1.54972,1.907353 -0.67056,0.536444 -1.2666,0.536444 -0.29803,0 -0.50665,-0.208617 -0.20861,-0.223518 -0.22351,-0.610949 -0.71526,0.819566 -1.44542,0.819566 -0.37253,0 -0.59605,-0.298024 -0.22352,-0.298024 -0.22352,-0.730159 0,-0.640752 0.41724,-1.400713 0.40233,-0.759961 1.11759,-1.311306 0.71526,-0.551344 1.47522,-0.551344 0.64075,0 0.87917,0.447036 1.2219,-1.877551 2.08617,-3.516683 h 1.40071 v 0.149012 q -0.0745,0.104308 -0.20862,0.298024 -0.13411,0.178814 -0.50664,0.730158 -0.37253,0.536444 -0.73016,1.043084 -0.34273,0.506641 -0.75996,1.147393 -0.41723,0.640751 -0.71526,1.147392 -0.29802,0.49174 -0.50664,0.908974 -0.20861,0.402332 -0.20861,0.566245 0,0.253321 0.19371,0.253321 z m -2.36929,0.0447 q 0.40233,0 1.16229,-0.983479 0.19372,-0.312925 0.56625,-0.894072 -0.22352,-0.0596 -0.22352,-0.253321 0.14901,0 0.23842,-0.149012 0.0894,-0.149012 0.0298,-0.298024 -0.0447,-0.149012 -0.22352,-0.149012 -0.47683,0 -1.13249,0.894072 -0.65565,0.879171 -0.65565,1.490121 0,0.342727 0.23842,0.342727 z"
               style="font-family:Froadmile;-inkscape-font-specification:Froadmile;fill:#cd7320;fill-opacity:1;stroke-width:0.184739"
               id="path53835" /></g><ellipse
             style="fill:#cd7320;fill-opacity:1;stroke:none;stroke-width:1.4146;stroke-linecap:round;stroke-linejoin:round;stroke-opacity:1"
             id="path22955"
             cx="111.60472"
             cy="33.962467"
             rx="0.66336024"
             ry="0.69530165" /><ellipse
             style="fill:#cd7320;fill-opacity:1;stroke:none;stroke-width:1.4146;stroke-linecap:round;stroke-linejoin:round;stroke-opacity:1"
             id="ellipse22957"
             cx="114.26391"
             cy="33.868618"
             rx="0.66336024"
             ry="0.69530165" /></g><g
           id="g31975"
           transform="matrix(0.66233264,0,0,0.66233264,-185.47906,6.9660828)"
           style="stroke-width:0.796524"
           inkscape:label="dancers"><g
             id="g1390"
             transform="matrix(0.42418589,0,0,0.42418589,315.59706,17.994108)"
             style="display:inline;stroke-width:1.87774"><path
               id="path1398"
               style="display:inline;fill:#ffffff;fill-opacity:1;stroke-width:1.87774"
               d="m 65.969896,84.918322 c -6.107855,2.234385 1.780562,6.821038 3.226906,11.474676 3.530853,3.641662 6.288973,12.342742 8.848874,14.161542 5.006244,-5.57068 4.888518,-8.53411 1.567155,-15.403983 -0.714664,-1.355914 -0.299491,-5.422354 -1.662663,-5.170764 -0.70775,2.914591 -6.572989,2.299339 -11.980272,-5.061471 z m -10.348722,5.330427 c -5.093634,0.908071 -7.726157,2.995693 -10.566279,6.998029 -2.819338,3.278442 -2.486306,2.894172 -5.652352,7.332382 3.587119,-5.63859 -1.372293,1.06491 -0.773597,1.01027 -1.984694,3.25291 -8.787241,4.38961 -8.031502,6.22087 2.239278,1.19784 5.472848,8.97292 1.075384,10.80501 4.958912,-1.00482 8.653224,-4.2421 9.31705,-3.82827 2.372171,-3.56357 8.746304,-5.22958 9.856241,-6.09887 2.823477,-0.59286 8.939867,0.84211 10.702389,-3.70196 2.115908,-4.00836 0.379977,-8.28289 -2.31304,-13.248326 -0.296197,-2.20294 -3.748106,-4.66264 -3.614294,-5.489135 z m -1.811776,0.286804 c -2.182368,0.512556 0.375069,0.502894 0,0 z m 1.984375,0.109554 c 1.013096,1.375021 1.977511,1.633657 0,0 z M 52.35419,91.05025 c -1.477514,0.215308 -0.360381,0.927515 0,0 z m 30.169274,2.86779 c 4.140087,4.167197 5.355197,11.40237 3.002533,16.80064 -3.363829,5.93999 -1.720324,13.58802 2.654431,16.9695 2.243012,4.36159 7.325949,-4.80876 8.293032,-7.84034 -1.169061,-0.42884 -1.937518,-3.42298 -2.013836,-3.67578 -1.756369,-3.04278 -4.393005,-10.44645 -3.428381,-10.98566 1.106671,5.08298 -2.329119,-7.216697 -2.597622,-5.772109 -1.225973,-3.534897 -3.866909,-3.724275 -5.910157,-5.496251 z m -43.258448,10.77479 c 0.263222,0.0992 0.101971,0.0245 0,0 z m -23.820251,2.75332 c 0.135117,0.54095 1.062494,1.40603 0.330724,0.23096 l -0.330729,-0.23099 z m 20.69331,0.0196 c -1.10457,0.38451 0.0012,0.62761 -4e-6,2e-5 z m -25.06772,1.95492 c -0.336078,0.6203 0.42762,1.30713 0,0 z m 8.872327,0.40669 c 0.682048,1.24901 1.28162,0.71108 0,0 z m 5.005379,0.56224 c -1.142727,0.14523 0.824498,0.32612 0,0 z m 5.882845,0.29821 c -2.776431,0.72885 -1.217117,1.09983 0,3e-4 z m -20.9423911,0.19791 c -1.2816034,0.71111 -0.6820623,1.24899 0,0 z m 19.5574621,0.82683 c -1.142724,0.14518 0.824514,0.32618 0,0 z m -20.3512121,0.49609 c 0.7110929,1.28162 1.2490151,0.68204 0,0 z m 17.4407961,0.0331 c -1.142727,0.14523 0.824498,0.32612 0,0 z m 23.939107,0.35864 c -1.116261,0.41622 -4.122556,1.63122 0,0 z m 4.657597,0.17208 c -1.177274,0.20182 1.177274,0.20182 0,0 z m 38.512378,1.75493 c 0.473415,-0.11146 1.284409,3.35025 0,0 z m -81.771753,2.04709 c 1.350484,1.69295 2.177326,1.97653 0,0 z m 5.666837,2.8112 c -1.142726,0.14523 0.824501,0.32612 0,0 z m 18.364254,1.36219 c -0.04136,0.0429 -1.904439,1.60948 0,0 z m -1.443839,1.17001 c -0.09928,0.50952 -2.636194,0.50206 0,0 z m -8.16746,0.3798 c -1.178609,0.20262 1.178607,0.20262 0,0 z m 2.910416,0 c -1.177013,0.20262 1.177013,0.20262 0,0 z m -1.619022,5.2e-4 c -1.468532,0.0812 1.385409,0.28874 0,0 z m 3.713985,0.26351 c -1.142721,0.14519 0.824506,0.32615 0,0 z m 22.555278,13.51505 c 0,0 -0.652279,4.23252 -0.02043,5.58087 3.230187,-0.25972 7.972349,-0.31631 11.238134,-0.96762 0.793384,-1.99197 -8.367212,-2.35999 -11.217701,-4.61325 z m 25.050434,4.20394 c 2.898996,0.11 4.822664,0.0768 1.53799,-3.8728 -1.070175,-3.1385 -3.852355,5.21538 -1.53799,3.8728 z m 0.100097,0.2914 c -0.990753,9.06292 2.454357,2.24055 0,0 z m 106.30861,83.82092 c -3e-5,4e-5 1.5e-4,1.2e-4 1.4e-4,7e-5 z m -3.13789,3.76624 c 0.67505,2.7922 5.32236,3.79378 8.42769,3.55728 1.72653,-0.13149 3.21496,-0.39994 2.06989,-3.25358 -0.83809,-2.08859 -2.11602,-5.63695 -3.46816,-5.53795 l -8.15059,0.5968 z m -26.61683,-14.29092 c 1.23074,1.92033 2.15542,2.99922 2.15542,2.99922 0,0 6.3204,7.55453 11.1598,5.77759 2.48364,-0.91195 2.23885,-2.01731 1.76867,-2.52946 -1.83948,-2.9047 -4.8832,-5.14181 -7.51808,-8.55797 -1.58408,1.85379 -6.23291,-4.38226 -7.56581,2.31062 z"
               sodipodi:nodetypes="ccccccccccscscsccsssssssssssccsssscsssssccccssscsccccssccssssccssssccssccccssssscccsccccccccsssscscssccc" /><path
               style="display:inline;fill:#422f21;fill-opacity:1;stroke-width:1.87774"
               d="m 96.539631,231.16499 c -3.777633,-1.01959 -5.700252,-2.11465 -6.456878,-3.67764 -0.30502,-0.63008 -0.55458,-1.28661 -0.55458,-1.45894 0,-0.17234 -0.458145,-0.77149 -1.018098,-1.33144 -1.061525,-1.06153 -1.490708,-2.51131 -1.189406,-4.01783 0.0932,-0.46601 -0.06827,-0.99587 -0.495228,-1.62502 -0.348438,-0.51345 -0.793682,-1.60117 -0.989431,-2.41714 -0.351528,-1.46533 -0.346718,-1.49564 0.390673,-2.46242 l 0.74658,-0.97881 -0.716793,-1.21482 c -1.209305,-2.04953 -1.7126,-3.23087 -2.489687,-5.84383 l -0.747162,-2.51234 -0.516038,0.62871 c -0.283819,0.34578 -2.230967,2.60743 -4.326993,5.02588 -2.096024,2.41845 -4.235525,5.03623 -4.754441,5.8173 l -0.943483,1.42013 -1.926289,-0.12362 c -1.059458,-0.068 -1.926288,-0.0224 -1.926288,0.10123 0,0.12366 -0.178594,0.22484 -0.396875,0.22484 -0.545322,0 -0.498428,0.61984 0.08698,1.14962 0.533797,0.48308 0.963316,0.5884 0.706771,0.1733 -0.285068,-0.46125 0.161874,-0.28673 0.937834,0.3662 0.4123,0.34692 1.570138,0.87999 2.572972,1.1846 1.572647,0.47767 1.892843,0.68288 2.328887,1.49257 0.462851,0.85946 0.471437,0.99964 0.101655,1.65967 -0.244697,0.43677 -0.817329,0.86065 -1.452827,1.07543 -1.268531,0.42873 -5.93081,0.7129 -7.596942,0.46305 -1.620985,-0.24308 -3.342298,-1.43689 -4.301291,-2.98315 -0.434576,-0.7007 -1.428483,-1.95299 -2.208684,-2.78286 -1.354624,-1.44088 -1.44554,-1.49118 -2.017686,-1.1163 -0.566417,0.37113 -0.71306,0.30811 -2.684767,-1.15382 -2.286045,-1.695 -3.538527,-3.01839 -3.538527,-3.73887 0,-0.52284 1.747314,-3.10997 3.05321,-4.52069 0.47148,-0.50932 1.064564,-1.33728 1.317969,-1.83991 0.253405,-0.50263 3.034729,-3.47941 6.180717,-6.61507 3.145989,-3.13565 6.564509,-6.713 7.596709,-7.94967 1.0322,-1.23666 2.067325,-2.40634 2.300277,-2.59929 0.520552,-0.43117 0.326078,-0.94473 -1.370047,-3.61793 -6.172491,-9.72826 -8.490117,-14.38021 -12.350761,-24.79051 -1.402083,-3.78074 -2.49474,-9.28947 -2.49474,-12.57746 0,-0.93243 -0.197403,-2.70001 -0.438674,-3.92796 -0.241271,-1.22794 -0.358611,-2.31269 -0.260755,-2.41055 0.281334,-0.28133 2.646979,-0.55596 6.586408,-0.76461 2.000912,-0.10599 3.638021,-0.29342 3.638021,-0.41654 0,-0.1231 -0.267891,-0.22589 -0.595313,-0.2284 -0.99424,-0.008 -7.391974,-1.74253 -8.705776,-2.36076 -1.919637,-0.90332 -2.044022,-1.14493 -1.778976,-3.4555 0.479208,-4.17758 0.358336,-6.5265 -0.518816,-10.08215 -1.192176,-4.83265 -2.475966,-11.36131 -2.316031,-11.7781 0.09834,-0.25626 0.310566,-0.29341 0.74245,-0.12995 0.332616,0.12589 1.344475,0.31433 2.24858,0.41876 2.445962,0.28251 4.77256,-0.55038 6.559268,-2.34815 2.170811,-2.18424 2.47895,-4.32677 1.313905,-9.13567 -0.908384,-3.749483 -2.714795,-7.218329 -5.068417,-9.732871 l -1.044819,-1.116253 3.060618,-1.221005 c 1.683341,-0.671552 3.306416,-1.44916 3.606838,-1.728017 0.558519,-0.51843 0.957304,-0.663586 0.847754,-0.308576 -0.03368,0.109141 0.470347,0.972344 1.120058,1.918229 3.137844,4.568246 10.113063,15.811963 11.489695,18.520833 0.850456,1.67349 1.601534,3.10224 1.669064,3.175 0.161385,0.17389 1.800415,-1.70136 2.659419,-3.04271 1.098238,-1.71491 1.643833,-3.53408 1.643833,-5.48101 0,-2.02835 -0.479767,-3.482976 -1.726478,-5.234613 -0.71134,-0.99944 -0.876205,-1.519888 -1.02671,-3.241146 -0.09861,-1.127786 -0.125191,-2.05052 -0.05906,-2.05052 0.181171,0 2.839656,1.724874 3.691813,2.395315 1.138484,0.895715 1.907371,2.298054 2.987503,5.448792 1.382739,4.033432 1.386314,6.233792 0.01656,10.202432 -1.216131,3.52356 -2.040533,6.9445 -2.000893,8.30291 0.03212,1.10072 -0.346019,2.32676 -0.805148,2.61052 -0.186476,0.11525 -0.155763,0.36319 0.09331,0.75331 0.283964,0.44476 0.374187,1.7637 0.383662,5.6086 0.0068,2.76489 0.14709,5.62239 0.311729,6.34999 0.16464,0.72761 0.359844,1.82894 0.43379,2.4474 0.103394,0.86477 0.246388,1.12448 0.619141,1.12448 0.266581,0 0.541853,0.20836 0.611711,0.46302 0.370142,1.34928 0.428834,2.46895 0.152609,2.91125 -0.25061,0.40129 -0.157861,0.72647 0.522679,1.83249 1.295374,2.10525 4.594138,9.41624 6.386971,14.15532 1.851012,4.89287 3.376893,10.57967 3.572407,13.31396 0.629123,8.79839 0.918911,14.5965 0.764669,15.29958 -0.101356,0.462 -0.525568,1.44494 -0.942697,2.18432 -0.65147,1.15475 -0.758412,1.62954 -0.758412,3.3671 0,1.68021 0.253161,2.88648 1.494774,7.12236 2.204294,7.52015 4.320163,15.80796 4.323303,16.93431 0.002,0.54275 -0.17647,1.43572 -0.39553,1.98437 -0.21906,0.54865 -0.50058,2.00957 -0.625603,3.2465 -0.19721,1.95114 -0.167426,2.31904 0.224903,2.77813 0.76178,0.89143 2.31271,3.62686 2.89557,5.10702 0.67611,1.717 0.51252,2.56619 -0.60623,3.14696 -1.08721,0.5644 -4.181785,0.69051 -5.855979,0.23865 z M 79.559905,144.57847 c 0.09575,-0.0958 0.06207,-0.30907 -0.07485,-0.47405 -0.136917,-0.16497 -0.13858,-1.10978 -0.190179,-2.12236 -0.09228,-1.81098 -0.247238,-1.82188 -0.298216,0.4554 -0.04737,2.1164 0.08493,2.61932 0.563245,2.14101 z m 2.441173,-4.91062 c 0.147302,-0.14729 -0.681921,-1.55748 -1.588354,-2.70118 -0.497015,-0.6271 -0.702329,-0.4414 -1.089779,0.98569 -0.165995,0.61142 -0.397259,1.33569 -0.513917,1.6095 -0.197231,0.46292 -0.09823,0.4896 1.411492,0.38039 0.892979,-0.0646 1.69423,-0.18807 1.780558,-0.2744 z m 102.909392,90.42779 c -2.19479,-1.064 -2.45348,-1.38903 -3.17147,-3.98465 -0.36213,-1.30916 -0.6599,-2.59519 -0.66171,-2.85784 -0.002,-0.26264 -0.26216,-1.03655 -0.57857,-1.71979 -0.38056,-0.82175 -0.63548,-2.04831 -0.75308,-3.6235 -0.12515,-1.67626 -0.39426,-2.9107 -0.909,-4.16955 -0.8518,-2.08322 -1.10839,-2.32939 -1.46107,-1.40177 -0.14182,0.37302 -0.4835,1.18386 -0.75928,1.80186 -0.27578,0.61799 -0.75666,1.89753 -1.06862,2.84342 -0.84187,2.55265 -0.89409,2.60684 -1.93695,2.01015 -0.4791,-0.27413 -2.13082,-1.72916 -3.6705,-3.23342 -1.53967,-1.50425 -3.23249,-2.91595 -3.76181,-3.13712 -1.20181,-0.50214 -1.15493,-0.50665 -1.32065,0.12705 -0.0812,0.31044 -0.36089,0.52917 -0.6767,0.52917 -0.29608,0 -0.61191,0.11906 -0.70184,0.26458 -0.0899,0.14552 -0.40314,0.26459 -0.69601,0.26459 -0.39375,0 -0.51672,0.1551 -0.47198,0.59531 0.0333,0.32742 -0.16269,1.32408 -0.43548,2.21481 l -0.49599,1.6195 -2.7067,-2.51698 c -1.48869,-1.38435 -2.77632,-2.69841 -2.86141,-2.92016 -0.18329,-0.47764 1.5635,-4.28415 1.96598,-4.28415 0.1527,0 0.27763,-0.23503 0.27763,-0.52228 0,-0.28725 0.34409,-1.38858 0.76464,-2.4474 0.42055,-1.05881 1.56084,-4.78261 2.53397,-8.27511 1.9198,-6.89006 3.68813,-11.58609 5.24236,-13.92181 0.64466,-0.96881 1.088,-2.02832 1.27319,-3.04271 0.15627,-0.85597 0.5745,-2.28663 0.92939,-3.17923 l 0.64526,-1.62292 -1.07821,-5.25625 c -0.59302,-2.89094 -1.31073,-6.50641 -1.59491,-8.03437 -0.28418,-1.52797 -0.86811,-3.84969 -1.29761,-5.15938 -2.49056,-7.59447 -3.05187,-10.94317 -2.64148,-15.75848 0.37833,-4.43921 1.68836,-8.7042 3.46812,-11.291 0.46162,-0.67094 0.82195,-1.40771 0.80073,-1.63728 -0.13322,-1.44145 -0.0105,-2.97669 0.32767,-4.10048 0.36493,-1.21257 0.35693,-1.33622 -0.12612,-1.95032 -0.66794,-0.84915 -0.65858,-2.20823 0.0288,-4.18091 0.45473,-1.30504 0.49661,-1.72641 0.25396,-2.55497 -0.15982,-0.5457 -0.37509,-0.99126 -0.47839,-0.99015 -0.1033,0.001 -0.47191,0.50714 -0.81913,1.12448 -3.19977,5.68908 -3.86518,6.61443 -6.38015,8.87262 -7.29761,6.55254 -13.56605,9.92722 -19.7385,10.62644 -3.65447,0.41399 -4.54914,0.0237 -6.48945,-2.83088 -0.71658,-1.05422 -1.57057,-2.09217 -1.89776,-2.30656 -0.36266,-0.23762 -1.78011,-0.4845 -3.63095,-0.6324 -1.66983,-0.13344 -3.63136,-0.42058 -4.35896,-0.6381 -2.1804,-0.65183 -2.10911,-0.65808 -2.20592,0.19325 -0.0491,0.43166 -0.44604,1.23533 -0.88212,1.78593 -0.71619,0.90427 -0.91333,1.0011 -2.03798,1.0011 -1.60962,0 -3.96164,-0.61845 -5.53272,-1.4548 -1.45185,-0.77288 -2.4693,-0.81703 -6.29439,-0.27315 -5.2525,0.74685 -7.10833,0.77451 -11.225,0.16728 -4.60469,-0.6792 -5.027084,-0.76735 -5.027084,-1.04903 0,-0.12011 0.602168,-0.90651 1.338149,-1.74756 0.735983,-0.84105 2.075437,-2.61236 2.976562,-3.93624 0.901129,-1.32389 1.701451,-2.49405 1.778493,-2.60037 0.07704,-0.10631 1.624856,0.28406 3.43958,0.86749 2.91067,0.93578 3.77261,1.09223 7.31409,1.32755 4.24168,0.28185 4.97736,0.16204 5.91073,-0.9626 0.69145,-0.83314 3.41753,-2.01475 4.44988,-1.92877 1.3219,0.11008 1.49364,1.01074 0.32444,1.7014 -1.76292,1.04139 -0.35696,1.38768 2.62293,0.64603 2.82527,-0.70317 2.92351,-0.69759 4.62598,0.26323 1.42462,0.80401 1.45065,0.80791 3.49573,0.52346 1.48394,-0.20639 2.34917,-0.48668 3.09248,-1.0018 0.90984,-0.63052 1.36492,-0.73442 3.84245,-0.87729 1.92683,-0.11112 3.23062,-0.33426 4.14706,-0.70977 2.60311,-1.06663 6.5837,-3.35772 7.6007,-4.37472 0.56698,-0.56699 1.42347,-1.19492 1.9033,-1.39541 0.59656,-0.24925 1.12308,-0.80664 1.66514,-1.76274 0.43599,-0.76903 1.64257,-2.27304 2.68129,-3.34224 2.60204,-2.67842 4.04525,-4.78751 5.67456,-8.29278 3.27867,-7.053625 3.51709,-7.295193 8.91993,-9.037834 2.10127,-0.677743 4.17199,-1.445979 4.6016,-1.707187 0.71949,-0.437459 0.78452,-0.603678 0.82434,-2.107041 l 0.0432,-1.632116 -0.91609,-0.302337 c -0.6645,-0.219305 -1.02329,-0.558893 -1.30641,-1.236483 -0.21467,-0.513778 -0.85799,-1.567222 -1.4296,-2.340983 -0.92011,-1.245504 -1.03929,-1.577919 -1.03929,-2.898648 0,-1.083963 -0.14956,-1.701845 -0.54706,-2.260073 -0.32964,-0.462949 -0.48309,-0.969788 -0.38611,-1.27535 0.0885,-0.278895 0.037,-0.583657 -0.1144,-0.677254 -0.1624,-0.10037 -0.27535,-1.307666 -0.27535,-2.943225 0,-2.31253 0.0942,-2.958041 0.56735,-3.886988 1.96947,-3.866938 4.57027,-5.03641 9.83846,-4.42395 3.08602,0.35877 4.23936,0.64828 4.24157,1.28592 4.60702,3.219004 4.19148,5.885637 4.98115,8.475244 l 0.32024,1.867506 1.40252,0.291164 c 0.77139,0.160139 1.58102,0.469656 1.79918,0.687818 0.62409,0.624086 0.77804,1.643494 0.32564,2.156249 -0.21952,0.248798 -0.65254,1.048453 -0.96228,1.777015 -0.41462,0.975265 -0.86578,1.516105 -1.71051,2.050521 -0.63104,0.399225 -1.35596,0.725866 -1.61093,0.725866 -0.26465,0 -0.40713,0.141925 -0.33202,0.330729 0.84171,2.115852 1.09966,2.580934 1.50234,2.708738 0.55204,0.17521 1.86229,-0.269002 1.86229,-0.631367 0,-0.137959 0.29666,-0.60339 0.65924,-1.034291 0.36258,-0.430903 0.75449,-1.241927 0.87092,-1.802278 0.14165,-0.681781 0.43442,-1.143846 0.88501,-1.396754 0.61203,-0.343521 0.72415,-0.327123 1.2314,0.180123 0.7468,0.746805 1.78188,0.447961 3.40891,-0.984205 0.67161,-0.591174 1.31067,-1.074862 1.42013,-1.074862 0.28821,0 0.44658,-0.505449 1.1893,-3.795744 1.32332,-5.862436 3.5953,-14.227246 4.37214,-16.097054 0.28326,-0.68182 0.51504,-1.475319 0.51504,-1.763331 0,-0.776317 -1.53215,-4.6468 -2.26968,-5.733608 -0.75067,-1.10617 -0.78282,-1.383483 -0.23101,-1.993212 0.94835,-1.047922 -0.20095,-2.520699 -2.58498,-3.312551 -0.74336,-0.246905 -2.41376,-0.973639 -3.71199,-1.614965 -1.29824,-0.641326 -2.70736,-1.235434 -3.13139,-1.320239 -0.42402,-0.08481 -0.77095,-0.313713 -0.77095,-0.508684 0,-0.48149 0.9967,-0.982215 1.54202,-0.774684 0.5002,0.190357 0.51722,0.206944 -1.60817,-1.567535 -1.6386,-1.368064 -1.81448,-1.707945 -0.99472,-1.922316 0.40399,-0.105646 0.48973,-0.28472 0.36819,-0.768979 -0.19103,-0.761123 0.24985,-0.823391 1.65953,-0.234389 1.16681,0.487525 1.14981,0.487648 1.14981,-0.0083 0,-0.716286 0.74994,-0.72288 2.01167,-0.01769 1.40944,0.78775 1.6925,0.838959 1.6925,0.30619 0,-0.704834 0.46156,-0.676542 2.41842,0.148237 1.07096,0.451394 2.39435,1.004523 2.94087,1.229175 0.5465,0.224653 1.41679,0.819399 1.93395,1.321659 0.88823,0.862647 2.23176,3.394489 2.23176,4.205707 0,0.204741 0.17034,0.437623 0.37854,0.517515 0.2082,0.07989 1.12958,1.594203 2.04753,3.365133 0.95247,1.837531 2.21501,3.823153 2.94084,4.625081 1.46423,1.617768 3.4349,4.599884 4.33525,6.560293 1.46011,3.179167 1.35351,6.351752 -0.3502,10.422022 -0.51797,1.237488 -1.2742,3.277206 -1.6805,4.532704 -1.03412,3.195611 -2.75061,6.627942 -5.4742,10.946442 -1.2849,2.037292 -2.93,4.713925 -3.65578,5.948077 -0.81867,1.392105 -2.23766,3.199987 -3.738,4.7625 l -2.4184,2.518589 -0.17172,5.55625 c -0.0944,3.05594 -0.28597,6.56828 -0.42561,7.80521 -0.13963,1.23692 -0.49214,4.33255 -0.78334,6.87916 -0.2912,2.54662 -0.53801,5.28506 -0.54846,6.08542 -0.0303,2.31685 -0.004,7.45357 0.0605,12.03854 0.035,2.47018 -0.0689,4.83942 -0.24936,5.68854 -0.17014,0.80037 -0.42737,2.64584 -0.57161,4.10104 -0.32555,3.28431 -1.35237,7.4203 -2.6603,10.71563 -0.5487,1.38245 -1.38248,4.29948 -1.85284,6.48229 -0.47037,2.18281 -1.22709,5.3975 -1.6816,7.14375 -0.97531,3.74721 -1.04928,5.99573 -0.33632,10.22434 l 0.47479,2.81601 -0.7129,5.51833 c -0.58161,4.50201 -0.68018,6.05436 -0.53523,8.42879 0.23926,3.91916 1.15063,15.51484 1.47348,18.74733 0.41518,4.15704 0.37592,4.62926 -0.40102,4.82426 -0.74679,0.18743 -0.75625,0.20679 -0.41059,0.83984 0.34997,0.64094 2.86302,4.62263 2.51728,5.79233 -1.14335,2.3554 -6.02937,0.87991 -7.92752,-0.0263 z m 0.07,-3.01479 c 0.25252,-0.41299 0.60743,-0.7009 0.78868,-0.6398 0.18126,0.0611 0.93311,-0.0894 1.67079,-0.33441 0.73768,-0.24502 1.37676,-0.40359 1.42017,-0.35238 0.0434,0.0512 0.21515,0.45028 0.38165,0.88685 0.28309,0.74226 0.2932,0.71697 0.15592,-0.38997 -0.0807,-0.65104 -0.33819,-1.39518 -0.5721,-1.65364 -0.50386,-0.55676 -1.07943,-0.64128 -0.62317,-0.0915 0.2512,0.30267 0.20472,0.43694 -0.23218,0.67076 -0.44772,0.23962 -0.54625,0.21484 -0.54625,-0.13735 0,-0.341 -0.16849,-0.28794 -0.81615,0.25704 -0.92435,0.77779 -1.41952,0.66422 -1.18462,-0.2717 0.0896,-0.35709 0.0413,-0.63259 -0.11086,-0.63259 -0.14829,0 -0.26962,0.41112 -0.26962,0.91359 0,0.90095 -0.46639,2.26698 -0.77008,2.25552 -0.0858,-0.003 -0.45277,-0.23391 -0.81553,-0.51262 -0.60864,-0.46761 -0.63453,-0.57306 -0.33533,-1.36573 0.34382,-0.91088 0.20784,-1.4084 -0.20606,-0.75393 -0.39069,0.61776 -0.29402,1.8911 0.18363,2.4189 0.63179,0.69812 1.35362,0.59565 1.88111,-0.26703 z M 184.52264,78.854405 c 0.3495,-0.653044 -0.0634,-1.306004 -0.82589,-1.306004 -0.58082,0 -1.09834,0.850617 -0.87369,1.436042 0.23139,0.603012 1.3532,0.517181 1.69958,-0.130038 z M 165.67611,221.91351 c -1.67059,-0.46092 -3.23168,-1.53349 -3.62937,-2.49361 -0.29163,-0.70406 -0.24268,-0.95213 0.46419,-2.35244 0.67285,-1.33291 1.58101,-2.20035 2.30365,-2.20035 0.38999,0 0.0284,0.86721 -0.40932,0.98167 -0.29104,0.0761 -0.52917,0.24356 -0.52917,0.3721 0,0.36375 0.42978,0.27541 0.79375,-0.16315 0.18116,-0.21828 0.49339,-0.39687 0.69386,-0.39687 0.48341,0 0.46539,0.6452 -0.0295,1.05591 -0.51324,0.42596 -0.26804,0.79617 0.52732,0.79617 0.40613,0 1.06483,0.44825 1.84682,1.25677 l 1.21553,1.25677 -0.60567,-1.0029 c -0.33311,-0.55161 -0.99261,-1.59053 -1.46556,-2.30873 -0.47294,-0.7182 -0.85989,-1.44567 -0.85989,-1.61659 0,-0.17093 0.34885,0.20864 0.77521,0.84349 0.42638,0.63485 1.51391,1.89448 2.41676,2.79919 1.81268,1.81642 1.88277,2.26227 0.44977,2.86074 -1.3908,0.58085 -2.62962,0.67843 -3.95839,0.31183 z m -1.96177,-7.46192 c 0.089,-0.23183 0.16175,-0.4713 0.16175,-0.53216 0,-0.0609 0.11906,-0.11065 0.26458,-0.11065 0.43101,0 0.30116,0.7231 -0.16175,0.90073 -0.31204,0.11974 -0.38297,0.0506 -0.26458,-0.25792 z M 27.351085,122.25464 c -3.108759,-0.19447 -5.282747,-0.78701 -8.202083,-2.23554 -0.654844,-0.32492 -1.756553,-0.66512 -2.448243,-0.756 -2.494446,-0.32772 -4.511421,-1.94295 -5.906048,-4.72968 -0.384952,-0.76921 -0.9423819,-1.66296 -1.2387285,-1.98612 -0.4555781,-0.49679 -0.4847008,-0.65276 -0.1885236,-1.00963 0.1926617,-0.23214 0.6787781,-0.59194 1.0802591,-0.79956 0.531215,-0.2747 0.752579,-0.61214 0.81302,-1.23932 0.07956,-0.82556 0.129479,-0.86095 1.18554,-0.84064 0.908785,0.0175 1.151834,-0.0871 1.38339,-0.59531 0.383934,-0.84264 1.031192,-0.77345 2.055958,0.21979 l 0.862856,0.83632 0.274061,-0.77017 c 0.749271,-2.10563 1.182941,-2.05828 2.377392,0.25954 1.193454,2.31589 2.393167,3.13727 3.767657,2.57951 2.092602,-0.84916 2.733503,-0.53067 2.133089,1.06 -0.33624,0.8908 -0.367176,0.88664 1.628455,0.21906 2.025811,-0.67767 3.046995,-0.65981 4.153136,0.0727 1.724387,1.14185 2.989924,4.88417 2.512417,7.42949 -0.243208,1.29641 -1.481476,2.57014 -2.447153,2.51723 -0.414557,-0.0227 -2.122961,-0.12694 -3.796451,-0.23163 z M 74.392661,92.290561 c -0.393644,-0.322824 -1.692891,-1.241796 -2.887215,-2.04216 -2.952787,-1.978782 -4.334354,-3.263379 -5.009364,-4.657765 -0.530334,-1.095523 -0.540179,-1.218787 -0.145455,-1.821212 0.588904,-0.898781 0.521033,-1.859862 -0.261821,-3.707482 -0.369954,-0.873125 -0.800706,-1.944687 -0.957228,-2.381249 -0.156522,-0.436563 -0.476089,-1.014551 -0.710142,-1.284418 -0.333817,-0.384892 -0.425315,-1.097848 -0.424437,-3.307291 0.0011,-2.521043 0.08059,-2.997102 0.758365,-4.536416 1.047528,-2.379065 2.02366,-3.513831 3.944406,-4.585425 2.414767,-1.347211 3.522972,-1.579076 5.955096,-1.24596 2.794789,0.382788 6.220497,1.50795 7.368263,2.420077 1.518301,1.206596 3.658073,2.129237 5.419846,2.336967 2.201331,0.259556 2.672663,0.862909 2.055996,2.631879 -0.349406,1.002311 -1.539341,1.680374 -3.749263,2.136455 l -1.529508,0.315659 0.170434,0.908491 c 0.104216,0.555514 0.04859,1.055304 -0.143172,1.286362 -0.251828,0.303435 -0.07324,0.728914 0.906571,2.159889 0.671097,0.980112 1.185429,1.969622 1.142961,2.198915 -0.04247,0.229296 -0.463921,0.530818 -0.936559,0.670052 -0.645986,0.190299 -0.859346,0.403794 -0.859346,0.859896 0,0.333708 -0.246091,0.852834 -0.54687,1.153612 -0.432178,0.432179 -0.481473,0.625671 -0.23504,0.922608 0.197014,0.237384 0.236263,0.644911 0.106596,1.106773 -0.112882,0.402074 -0.176589,0.847693 -0.141574,0.990269 0.303784,1.236933 0.210916,1.821596 -0.375705,2.365256 -0.640154,0.593275 -2.72854,1.211974 -4.090951,1.211974 -0.759857,0 -1.066456,0.389811 -1.066456,1.355892 0,0.56257 -2.266802,3.14733 -2.748185,3.133664 -0.161988,-0.0046 -0.616595,-0.272489 -1.010243,-0.595312 z"
               id="path1392"
               sodipodi:nodetypes="sssssssscsscssscsssssssssssssssssssssssssssscssssssssscsssssssssssssssssssssssssssssscsssssssssssssssssssscssssssssssssssscssssssssscsssssssssscsssssssssssssssssssssssssssssssssssscsssssssscscccsssssssssssssssssssssssssssssssssssssssssssssccssscsssssscsssssccssssssssssssssscssssssssssssssssssssscssssssssssssscsssssssssscssssscssccssssssscssssssscsssssssssssssss" /></g><path
             d="m 393.45059,45.641649 c -1.25467,0.512069 -0.1433,2.320658 -0.16927,2.360023 0.73776,0.867328 1.41005,0.534515 1.75974,0.329492 0.69761,-1.241889 -0.95365,-2.166124 -1.1824,-2.521469 -0.13601,-0.05603 -0.27206,-0.112054 -0.40807,-0.168046 z m 0.2884,5.171519 c -0.65616,-0.257722 -1.12703,1.377833 0.26496,0.802334 0.0417,-0.206264 0.13583,-0.473894 -0.26496,-0.802334 z"
             style="display:inline;fill:#ffffff;fill-opacity:1;stroke-width:0.796524"
             id="path19178"
             sodipodi:nodetypes="cccccccc" /></g></g><g
         id="g62651"
         style="stroke-width:0.901853"
         transform="matrix(0.66918375,0,0,0.66918375,18.620112,-1.0432771)" /></g></g></svg>
